{"Protocol":0,"Id":"e074da1956046b73a23d8bf7d3fff807","Path":"/movies/Ne Zha (2019)/[bitsearch.to] Ne Zha 2019 1080p (DUAL) BluRay HEVC x265 5.1 BONE.mkv","EncoderPath":null,"EncoderProtocol":null,"Type":0,"Container":"mkv","Size":1666405810,"Name":"[bitsearch.to] Ne Zha 2019 1080p (DUAL) BluRay HEVC x265 5.1 BONE","IsRemote":false,"ETag":"37dfc16be75ce1af3f900a622b3ac6d0","RunTimeTicks":66075300000,"ReadAtNativeFramerate":false,"IgnoreDts":false,"IgnoreIndex":false,"GenPtsInput":false,"SupportsTranscoding":true,"SupportsDirectStream":true,"SupportsDirectPlay":true,"IsInfiniteStream":false,"UseMostCompatibleTranscodingProfile":false,"RequiresOpening":false,"OpenToken":null,"RequiresClosing":false,"LiveStreamId":null,"BufferMs":null,"RequiresLooping":false,"SupportsProbing":true,"VideoType":0,"IsoType":null,"Video3DFormat":null,"MediaStreams":[{"Codec":"hevc","CodecTag":null,"Language":null,"ColorRange":null,"ColorSpace":"bt709","ColorTransfer":"bt709","ColorPrimaries":"bt709","DvVersionMajor":null,"DvVersionMinor":null,"DvProfile":null,"DvLevel":null,"RpuPresentFlag":null,"ElPresentFlag":null,"BlPresentFlag":null,"DvBlSignalCompatibilityId":null,"Rotation":null,"Comment":null,"TimeBase":"1/1000","CodecTimeBase":null,"Title":null,"Hdr10PlusPresentFlag":null,"VideoRange":1,"VideoRangeType":1,"VideoDoViTitle":null,"AudioSpatialFormat":0,"LocalizedUndefined":null,"LocalizedDefault":null,"LocalizedForced":null,"LocalizedExternal":null,"LocalizedHearingImpaired":null,"DisplayTitle":"1080p HEVC SDR","NalLengthSize":null,"IsInterlaced":false,"IsAVC":false,"ChannelLayout":null,"BitRate":2017583,"BitDepth":8,"RefFrames":1,"PacketLength":null,"Channels":null,"SampleRate":null,"IsDefault":true,"IsForced":false,"IsHearingImpaired":false,"Height":804,"Width":1920,"AverageFrameRate":24,"RealFrameRate":24,"ReferenceFrameRate":24,"Profile":"Main","Type":1,"AspectRatio":"2.40:1","Index":0,"Score":null,"IsExternal":false,"DeliveryMethod":null,"DeliveryUrl":null,"IsExternalUrl":null,"IsTextSubtitleStream":false,"SupportsExternalStream":false,"Path":null,"PixelFormat":"yuv420p","Level":120,"IsAnamorphic":false},{"Codec":"aac","CodecTag":null,"Language":"eng","ColorRange":null,"ColorSpace":null,"ColorTransfer":null,"ColorPrimaries":null,"DvVersionMajor":null,"DvVersionMinor":null,"DvProfile":null,"DvLevel":null,"RpuPresentFlag":null,"ElPresentFlag":null,"BlPresentFlag":null,"DvBlSignalCompatibilityId":null,"Rotation":null,"Comment":null,"TimeBase":"1/1000","CodecTimeBase":null,"Title":"Surround","Hdr10PlusPresentFlag":null,"VideoRange":0,"VideoRangeType":0,"VideoDoViTitle":null,"AudioSpatialFormat":0,"LocalizedUndefined":null,"LocalizedDefault":"Default","LocalizedForced":null,"LocalizedExternal":"External","LocalizedHearingImpaired":null,"DisplayTitle":"Surround - English - AAC - 5.1 - Default","NalLengthSize":null,"IsInterlaced":false,"IsAVC":false,"ChannelLayout":"5.1","BitRate":320000,"BitDepth":null,"RefFrames":null,"PacketLength":null,"Channels":6,"SampleRate":48000,"IsDefault":true,"IsForced":false,"IsHearingImpaired":false,"Height":null,"Width":null,"AverageFrameRate":null,"RealFrameRate":null,"ReferenceFrameRate":null,"Profile":"LC","Type":0,"AspectRatio":null,"Index":1,"Score":null,"IsExternal":false,"DeliveryMethod":null,"DeliveryUrl":null,"IsExternalUrl":null,"IsTextSubtitleStream":false,"SupportsExternalStream":false,"Path":null,"PixelFormat":null,"Level":0,"IsAnamorphic":null},{"Codec":"aac","CodecTag":null,"Language":"zho","ColorRange":null,"ColorSpace":null,"ColorTransfer":null,"ColorPrimaries":null,"DvVersionMajor":null,"DvVersionMinor":null,"DvProfile":null,"DvLevel":null,"RpuPresentFlag":null,"ElPresentFlag":null,"BlPresentFlag":null,"DvBlSignalCompatibilityId":null,"Rotation":null,"Comment":null,"TimeBase":"1/1000","CodecTimeBase":null,"Title":"Surround","Hdr10PlusPresentFlag":null,"VideoRange":0,"VideoRangeType":0,"VideoDoViTitle":null,"AudioSpatialFormat":0,"LocalizedUndefined":null,"LocalizedDefault":"Default","LocalizedForced":null,"LocalizedExternal":"External","LocalizedHearingImpaired":null,"DisplayTitle":"Surround - Chinese - AAC - 5.1","NalLengthSize":null,"IsInterlaced":false,"IsAVC":false,"ChannelLayout":"5.1","BitRate":320000,"BitDepth":null,"RefFrames":null,"PacketLength":null,"Channels":6,"SampleRate":48000,"IsDefault":false,"IsForced":false,"IsHearingImpaired":false,"Height":null,"Width":null,"AverageFrameRate":null,"RealFrameRate":null,"ReferenceFrameRate":null,"Profile":"LC","Type":0,"AspectRatio":null,"Index":2,"Score":null,"IsExternal":false,"DeliveryMethod":null,"DeliveryUrl":null,"IsExternalUrl":null,"IsTextSubtitleStream":false,"SupportsExternalStream":false,"Path":null,"PixelFormat":null,"Level":0,"IsAnamorphic":null},{"Codec":"ass","CodecTag":null,"Language":"eng","ColorRange":null,"ColorSpace":null,"ColorTransfer":null,"ColorPrimaries":null,"DvVersionMajor":null,"DvVersionMinor":null,"DvProfile":null,"DvLevel":null,"RpuPresentFlag":null,"ElPresentFlag":null,"BlPresentFlag":null,"DvBlSignalCompatibilityId":null,"Rotation":null,"Comment":null,"TimeBase":"1/1000","CodecTimeBase":null,"Title":"English subs for English audio","Hdr10PlusPresentFlag":null,"VideoRange":0,"VideoRangeType":0,"VideoDoViTitle":null,"AudioSpatialFormat":0,"LocalizedUndefined":"Undefined","LocalizedDefault":"Default","LocalizedForced":"Forced","LocalizedExternal":"External","LocalizedHearingImpaired":"Hearing Impaired","DisplayTitle":"English subs for English audio - ASS","NalLengthSize":null,"IsInterlaced":false,"IsAVC":false,"ChannelLayout":null,"BitRate":null,"BitDepth":null,"RefFrames":null,"PacketLength":null,"Channels":null,"SampleRate":null,"IsDefault":false,"IsForced":false,"IsHearingImpaired":false,"Height":0,"Width":0,"AverageFrameRate":null,"RealFrameRate":null,"ReferenceFrameRate":null,"Profile":null,"Type":2,"AspectRatio":null,"Index":3,"Score":null,"IsExternal":false,"DeliveryMethod":null,"DeliveryUrl":null,"IsExternalUrl":null,"IsTextSubtitleStream":true,"SupportsExternalStream":true,"Path":null,"PixelFormat":null,"Level":0,"IsAnamorphic":null},{"Codec":"ass","CodecTag":null,"Language":"eng","ColorRange":null,"ColorSpace":null,"ColorTransfer":null,"ColorPrimaries":null,"DvVersionMajor":null,"DvVersionMinor":null,"DvProfile":null,"DvLevel":null,"RpuPresentFlag":null,"ElPresentFlag":null,"BlPresentFlag":null,"DvBlSignalCompatibilityId":null,"Rotation":null,"Comment":null,"TimeBase":"1/1000","CodecTimeBase":null,"Title":"English SDH for English audio","Hdr10PlusPresentFlag":null,"VideoRange":0,"VideoRangeType":0,"VideoDoViTitle":null,"AudioSpatialFormat":0,"LocalizedUndefined":"Undefined","LocalizedDefault":"Default","LocalizedForced":"Forced","LocalizedExternal":"External","LocalizedHearingImpaired":"Hearing Impaired","DisplayTitle":"English SDH for English audio - ASS","NalLengthSize":null,"IsInterlaced":false,"IsAVC":false,"ChannelLayout":null,"BitRate":null,"BitDepth":null,"RefFrames":null,"PacketLength":null,"Channels":null,"SampleRate":null,"IsDefault":false,"IsForced":false,"IsHearingImpaired":false,"Height":0,"Width":0,"AverageFrameRate":null,"RealFrameRate":null,"ReferenceFrameRate":null,"Profile":null,"Type":2,"AspectRatio":null,"Index":4,"Score":null,"IsExternal":false,"DeliveryMethod":null,"DeliveryUrl":null,"IsExternalUrl":null,"IsTextSubtitleStream":true,"SupportsExternalStream":true,"Path":null,"PixelFormat":null,"Level":0,"IsAnamorphic":null},{"Codec":"ass","CodecTag":null,"Language":"eng","ColorRange":null,"ColorSpace":null,"ColorTransfer":null,"ColorPrimaries":null,"DvVersionMajor":null,"DvVersionMinor":null,"DvProfile":null,"DvLevel":null,"RpuPresentFlag":null,"ElPresentFlag":null,"BlPresentFlag":null,"DvBlSignalCompatibilityId":null,"Rotation":null,"Comment":null,"TimeBase":"1/1000","CodecTimeBase":null,"Title":"English subs for Chinese audio","Hdr10PlusPresentFlag":null,"VideoRange":0,"VideoRangeType":0,"VideoDoViTitle":null,"AudioSpatialFormat":0,"LocalizedUndefined":"Undefined","LocalizedDefault":"Default","LocalizedForced":"Forced","LocalizedExternal":"External","LocalizedHearingImpaired":"Hearing Impaired","DisplayTitle":"English subs for Chinese audio - ASS","NalLengthSize":null,"IsInterlaced":false,"IsAVC":false,"ChannelLayout":null,"BitRate":null,"BitDepth":null,"RefFrames":null,"PacketLength":null,"Channels":null,"SampleRate":null,"IsDefault":false,"IsForced":false,"IsHearingImpaired":false,"Height":0,"Width":0,"AverageFrameRate":null,"RealFrameRate":null,"ReferenceFrameRate":null,"Profile":null,"Type":2,"AspectRatio":null,"Index":5,"Score":null,"IsExternal":false,"DeliveryMethod":null,"DeliveryUrl":null,"IsExternalUrl":null,"IsTextSubtitleStream":true,"SupportsExternalStream":true,"Path":null,"PixelFormat":null,"Level":0,"IsAnamorphic":null},{"Codec":"ass","CodecTag":null,"Language":"eng","ColorRange":null,"ColorSpace":null,"ColorTransfer":null,"ColorPrimaries":null,"DvVersionMajor":null,"DvVersionMinor":null,"DvProfile":null,"DvLevel":null,"RpuPresentFlag":null,"ElPresentFlag":null,"BlPresentFlag":null,"DvBlSignalCompatibilityId":null,"Rotation":null,"Comment":null,"TimeBase":"1/1000","CodecTimeBase":null,"Title":"English Forced subs for English audio","Hdr10PlusPresentFlag":null,"VideoRange":0,"VideoRangeType":0,"VideoDoViTitle":null,"AudioSpatialFormat":0,"LocalizedUndefined":"Undefined","LocalizedDefault":"Default","LocalizedForced":"Forced","LocalizedExternal":"External","LocalizedHearingImpaired":"Hearing Impaired","DisplayTitle":"English Forced subs for English audio - ASS","NalLengthSize":null,"IsInterlaced":false,"IsAVC":false,"ChannelLayout":null,"BitRate":null,"BitDepth":null,"RefFrames":null,"PacketLength":null,"Channels":null,"SampleRate":null,"IsDefault":false,"IsForced":false,"IsHearingImpaired":false,"Height":0,"Width":0,"AverageFrameRate":null,"RealFrameRate":null,"ReferenceFrameRate":null,"Profile":null,"Type":2,"AspectRatio":null,"Index":6,"Score":null,"IsExternal":false,"DeliveryMethod":null,"DeliveryUrl":null,"IsExternalUrl":null,"IsTextSubtitleStream":true,"SupportsExternalStream":true,"Path":null,"PixelFormat":null,"Level":0,"IsAnamorphic":null}],"MediaAttachments":[],"Formats":[],"Bitrate":2657583,"FallbackMaxStreamingBitrate":null,"Timestamp":null,"RequiredHttpHeaders":{},"TranscodingUrl":null,"TranscodingSubProtocol":0,"TranscodingContainer":null,"AnalyzeDurationMs":null,"DefaultAudioStreamIndex":null,"DefaultSubtitleStreamIndex":null,"HasSegments":false}

/usr/lib/jellyfin-ffmpeg/ffmpeg -analyzeduration 200M -probesize 1G -ss 00:44:51.000 -noaccurate_seek  -i file:"/movies/Ne Zha (2019)/[bitsearch.to] Ne Zha 2019 1080p (DUAL) BluRay HEVC x265 5.1 BONE.mkv" -map_metadata -1 -map_chapters -1 -threads 0 -map 0:0 -map 0:1 -map -0:s -codec:v:0 libx264 -preset veryfast -crf 23 -maxrate 292000 -bufsize 584000 -profile:v:0 high -level 51 -x264opts:0 subme=0:me_range=16:rc_lookahead=10:me=hex:open_gop=0 -force_key_frames:0 "expr:gte(t,n_forced*3)" -sc_threshold:v:0 0 -vf "setparams=color_primaries=bt709:color_trc=bt709:colorspace=bt709,scale=trunc(min(max(iw\,ih*a)\,960)/2)*2:trunc(ow/a/2)*2,format=yuv420p" -codec:a:0 libfdk_aac -ac 6 -ab 128000 -copyts -avoid_negative_ts disabled -max_muxing_queue_size 2048 -f hls -max_delay 5000000 -hls_time 3 -hls_segment_type fmp4 -hls_fmp4_init_filename "825ebd569bc9db0159226c97d4a15f04-1.mp4" -start_number 897 -hls_segment_filename "/config/cache/transcodes/825ebd569bc9db0159226c97d4a15f04%d.mp4" -hls_playlist_type vod -hls_list_size 0 -hls_segment_options movflags=+frag_discont -y "/config/cache/transcodes/825ebd569bc9db0159226c97d4a15f04.m3u8"


ffmpeg version 7.1.2-Jellyfin Copyright (c) 2000-2025 the FFmpeg developers
  built with gcc 13 (Ubuntu 13.3.0-6ubuntu2~24.04)
  configuration: --prefix=/usr/lib/jellyfin-ffmpeg --target-os=linux --extra-version=Jellyfin --disable-doc --disable-ffplay --disable-static --disable-libxcb --disable-sdl2 --disable-xlib --enable-lto=auto --enable-gpl --enable-version3 --enable-shared --enable-gmp --enable-gnutls --enable-chromaprint --enable-opencl --enable-libdrm --enable-libxml2 --enable-libass --enable-libfreetype --enable-libfribidi --enable-libfontconfig --enable-libharfbuzz --enable-libbluray --enable-libmp3lame --enable-libopus --enable-libtheora --enable-libvorbis --enable-libopenmpt --enable-libdav1d --enable-libsvtav1 --enable-libwebp --enable-libvpx --enable-libx264 --enable-libx265 --enable-libzvbi --enable-libzimg --enable-libfdk-aac --arch=amd64 --enable-libshaderc --enable-libplacebo --enable-vulkan --enable-vaapi --enable-amf --enable-libvpl --enable-ffnvcodec --enable-cuda --enable-cuda-llvm --enable-cuvid --enable-nvdec --enable-nvenc
  libavutil      59. 39.100 / 59. 39.100
  libavcodec     61. 19.101 / 61. 19.101
  libavformat    61.  7.100 / 61.  7.100
  libavdevice    61.  3.100 / 61.  3.100
  libavfilter    10.  4.100 / 10.  4.100
  libswscale      8.  3.100 /  8.  3.100
  libswresample   5.  3.100 /  5.  3.100
  libpostproc    58.  3.100 / 58.  3.100
Input #0, matroska,webm, from 'file:/movies/Ne Zha (2019)/[bitsearch.to] Ne Zha 2019 1080p (DUAL) BluRay HEVC x265 5.1 BONE.mkv':
  Metadata:
    creation_time   : 2025-08-04T01:04:36.000000Z
    ENCODER         : Lavf61.7.100
  Duration: 01:50:07.53, start: -0.021000, bitrate: 2017 kb/s
  Stream #0:0: Video: hevc (Main), yuv420p(tv, bt709), 1920x804 [SAR 1:1 DAR 160:67], 24 fps, 24 tbr, 1k tbn (default)
      Metadata:
        DURATION        : 01:50:07.500000000
  Stream #0:1(eng): Audio: aac (LC), 48000 Hz, 5.1, fltp (default)
      Metadata:
        title           : Surround
        DURATION        : 01:50:07.530000000
  Stream #0:2(chi): Audio: aac (LC), 48000 Hz, 5.1, fltp
      Metadata:
        title           : Surround
        DURATION        : 01:50:07.509000000
  Stream #0:3(eng): Subtitle: ass (ssa)
      Metadata:
        title           : English subs for English audio
        DURATION        : 01:49:37.251000000
  Stream #0:4(eng): Subtitle: ass (ssa)
      Metadata:
        title           : English SDH for English audio
        DURATION        : 01:49:37.251000000
  Stream #0:5(eng): Subtitle: ass (ssa)
      Metadata:
        title           : English subs for Chinese audio
        DURATION        : 01:49:36.521000000
  Stream #0:6(eng): Subtitle: ass (ssa)
      Metadata:
        title           : English Forced subs for English audio
        DURATION        : 01:49:36.521000000
Stream mapping:
  Stream #0:0 -> #0:0 (hevc (native) -> h264 (libx264))
  Stream #0:1 -> #0:1 (aac (native) -> aac (libfdk_aac))
Press [q] to stop, [?] for help
[libx264 @ 0x55627914c1c0] using SAR=1/1
[libx264 @ 0x55627914c1c0] using cpu capabilities: MMX2 SSE2Fast SSSE3 SSE4.2 AVX FMA3 BMI2 AVX2
[libx264 @ 0x55627914c1c0] profile High, level 5.1, 4:2:0, 8-bit
[libx264 @ 0x55627914c1c0] 264 - core 164 r3108 31e19f9 - H.264/MPEG-4 AVC codec - Copyleft 2003-2023 - http://www.videolan.org/x264.html - options: cabac=1 ref=1 deblock=1:0:0 analyse=0x3:0x113 me=hex subme=0 psy=1 psy_rd=1.00:0.00 mixed_ref=0 me_range=16 chroma_me=1 trellis=0 8x8dct=1 cqm=0 deadzone=21,11 fast_pskip=1 chroma_qp_offset=0 threads=13 lookahead_threads=2 sliced_threads=0 nr=0 decimate=1 interlaced=0 bluray_compat=0 constrained_intra=0 bframes=3 b_pyramid=2 b_adapt=1 b_bias=0 direct=1 weightb=1 open_gop=0 weightp=1 keyint=250 keyint_min=24 scenecut=0 intra_refresh=0 rc_lookahead=10 rc=crf mbtree=1 crf=23.0 qcomp=0.60 qpmin=0 qpmax=69 qpstep=4 vbv_maxrate=292 vbv_bufsize=584 crf_max=0.0 nal_hrd=none filler=0 ip_ratio=1.40 aq=1:1.00
[hls @ 0x5562791c8980] Opening '/config/cache/transcodes/825ebd569bc9db0159226c97d4a15f04-1.mp4' for writing
Output #0, hls, to '/config/cache/transcodes/825ebd569bc9db0159226c97d4a15f04.m3u8':
  Metadata:
    encoder         : Lavf61.7.100
  Stream #0:0: Video: h264, yuv420p(tv, bt709, progressive), 960x402 [SAR 1:1 DAR 160:67], q=2-31, 24 fps, 12288 tbn (default)
      Metadata:
        encoder         : Lavc61.19.101 libx264
      Side data:
        cpb: bitrate max/min/avg: 292000/0/0 buffer size: 584000 vbv_delay: N/A
  Stream #0:1: Audio: aac, 48000 Hz, 5.1, s16, 128 kb/s (default)
      Metadata:
        encoder         : Lavc61.19.101 libfdk_aac
      Side data:
        cpb: bitrate max/min/avg: 128000/128000/128000 buffer size: 0 vbv_delay: N/A
[hls @ 0x5562791c8980] Opening '/config/cache/transcodes/825ebd569bc9db0159226c97d4a15f04897.mp4' for writing
[hls @ 0x5562791c8980] Opening '/config/cache/transcodes/825ebd569bc9db0159226c97d4a15f04898.mp4' for writing
frame=  162 fps=0.0 q=28.0 size=N/A time=00:00:00.00 bitrate=N/A speed=   0x    
[hls @ 0x5562791c8980] Opening '/config/cache/transcodes/825ebd569bc9db0159226c97d4a15f04899.mp4' for writing
[hls @ 0x5562791c8980] Opening '/config/cache/transcodes/825ebd569bc9db0159226c97d4a15f04900.mp4' for writing
[hls @ 0x5562791c8980] Opening '/config/cache/transcodes/825ebd569bc9db0159226c97d4a15f04901.mp4' for writing
frame=  367 fps=367 q=33.0 size=N/A time=00:00:08.54 bitrate=N/A speed=8.54x    
[hls @ 0x5562791c8980] Opening '/config/cache/transcodes/825ebd569bc9db0159226c97d4a15f04902.mp4' for writing
[hls @ 0x5562791c8980] Opening '/config/cache/transcodes/825ebd569bc9db0159226c97d4a15f04903.mp4' for writing
[hls @ 0x5562791c8980] Opening '/config/cache/transcodes/825ebd569bc9db0159226c97d4a15f04904.mp4' for writing
frame=  582 fps=388 q=28.0 size=N/A time=00:00:17.50 bitrate=N/A speed=11.7x    
[hls @ 0x5562791c8980] Opening '/config/cache/transcodes/825ebd569bc9db0159226c97d4a15f04905.mp4' for writing
[hls @ 0x5562791c8980] Opening '/config/cache/transcodes/825ebd569bc9db0159226c97d4a15f04906.mp4' for writing
[hls @ 0x5562791c8980] Opening '/config/cache/transcodes/825ebd569bc9db0159226c97d4a15f04907.mp4' for writing
frame=  793 fps=396 q=42.0 size=N/A time=00:00:26.33 bitrate=N/A speed=13.2x    
[hls @ 0x5562791c8980] Opening '/config/cache/transcodes/825ebd569bc9db0159226c97d4a15f04908.mp4' for writing
[hls @ 0x5562791c8980] Opening '/config/cache/transcodes/825ebd569bc9db0159226c97d4a15f04909.mp4' for writing
frame=  946 fps=378 q=36.0 size=N/A time=00:00:32.66 bitrate=N/A speed=13.1x    
[hls @ 0x5562791c8980] Opening '/config/cache/transcodes/825ebd569bc9db0159226c97d4a15f04910.mp4' for writing
[hls @ 0x5562791c8980] Opening '/config/cache/transcodes/825ebd569bc9db0159226c97d4a15f04911.mp4' for writing
frame= 1101 fps=367 q=44.0 size=N/A time=00:00:39.12 bitrate=N/A speed=  13x    
[hls @ 0x5562791c8980] Opening '/config/cache/transcodes/825ebd569bc9db0159226c97d4a15f04912.mp4' for writing
[hls @ 0x5562791c8980] Opening '/config/cache/transcodes/825ebd569bc9db0159226c97d4a15f04913.mp4' for writing
frame= 1294 fps=369 q=32.0 size=N/A time=00:00:47.16 bitrate=N/A speed=13.5x    
[hls @ 0x5562791c8980] Opening '/config/cache/transcodes/825ebd569bc9db0159226c97d4a15f04914.mp4' for writing
[hls @ 0x5562791c8980] Opening '/config/cache/transcodes/825ebd569bc9db0159226c97d4a15f04915.mp4' for writing
[hls @ 0x5562791c8980] Opening '/config/cache/transcodes/825ebd569bc9db0159226c97d4a15f04916.mp4' for writing
frame= 1507 fps=377 q=38.0 size=N/A time=00:00:56.04 bitrate=N/A speed=  14x    
[hls @ 0x5562791c8980] Opening '/config/cache/transcodes/825ebd569bc9db0159226c97d4a15f04917.mp4' for writing
[hls @ 0x5562791c8980] Opening '/config/cache/transcodes/825ebd569bc9db0159226c97d4a15f04918.mp4' for writing
[hls @ 0x5562791c8980] Opening '/config/cache/transcodes/825ebd569bc9db0159226c97d4a15f04919.mp4' for writing
frame= 1688 fps=375 q=46.0 size=N/A time=00:01:03.58 bitrate=N/A speed=14.1x    
[hls @ 0x5562791c8980] Opening '/config/cache/transcodes/825ebd569bc9db0159226c97d4a15f04920.mp4' for writing
[hls @ 0x5562791c8980] Opening '/config/cache/transcodes/825ebd569bc9db0159226c97d4a15f04921.mp4' for writing
[hls @ 0x5562791c8980] Opening '/config/cache/transcodes/825ebd569bc9db0159226c97d4a15f04922.mp4' for writing
frame= 1894 fps=379 q=32.0 size=N/A time=00:01:12.16 bitrate=N/A speed=14.4x    
[hls @ 0x5562791c8980] Opening '/config/cache/transcodes/825ebd569bc9db0159226c97d4a15f04923.mp4' for writing
[hls @ 0x5562791c8980] Opening '/config/cache/transcodes/825ebd569bc9db0159226c97d4a15f04924.mp4' for writing
frame= 2073 fps=377 q=46.0 size=N/A time=00:01:19.62 bitrate=N/A speed=14.5x    
[hls @ 0x5562791c8980] Opening '/config/cache/transcodes/825ebd569bc9db0159226c97d4a15f04925.mp4' for writing
[hls @ 0x5562791c8980] Opening '/config/cache/transcodes/825ebd569bc9db0159226c97d4a15f04926.mp4' for writing
frame= 2213 fps=369 q=53.0 size=N/A time=00:01:25.45 bitrate=N/A speed=14.2x    
[hls @ 0x5562791c8980] Opening '/config/cache/transcodes/825ebd569bc9db0159226c97d4a15f04927.mp4' for writing
[hls @ 0x5562791c8980] Opening '/config/cache/transcodes/825ebd569bc9db0159226c97d4a15f04928.mp4' for writing
[hls @ 0x5562791c8980] Opening '/config/cache/transcodes/825ebd569bc9db0159226c97d4a15f04929.mp4' for writing
frame= 2383 fps=366 q=42.0 size=N/A time=00:01:32.54 bitrate=N/A speed=14.2x    
[hls @ 0x5562791c8980] Opening '/config/cache/transcodes/825ebd569bc9db0159226c97d4a15f04930.mp4' for writing
[hls @ 0x5562791c8980] Opening '/config/cache/transcodes/825ebd569bc9db0159226c97d4a15f04931.mp4' for writing
frame= 2561 fps=366 q=35.0 size=N/A time=00:01:39.95 bitrate=N/A speed=14.3x    
[hls @ 0x5562791c8980] Opening '/config/cache/transcodes/825ebd569bc9db0159226c97d4a15f04932.mp4' for writing
[hls @ 0x5562791c8980] Opening '/config/cache/transcodes/825ebd569bc9db0159226c97d4a15f04933.mp4' for writing
[hls @ 0x5562791c8980] Opening '/config/cache/transcodes/825ebd569bc9db0159226c97d4a15f04934.mp4' for writing
frame= 2745 fps=366 q=36.0 size=N/A time=00:01:47.62 bitrate=N/A speed=14.3x    
[hls @ 0x5562791c8980] Opening '/config/cache/transcodes/825ebd569bc9db0159226c97d4a15f04935.mp4' for writing
[hls @ 0x5562791c8980] Opening '/config/cache/transcodes/825ebd569bc9db0159226c97d4a15f04936.mp4' for writing
frame= 2929 fps=366 q=48.0 size=N/A time=00:01:55.29 bitrate=N/A speed=14.4x    
[hls @ 0x5562791c8980] Opening '/config/cache/transcodes/825ebd569bc9db0159226c97d4a15f04937.mp4' for writing
[hls @ 0x5562791c8980] Opening '/config/cache/transcodes/825ebd569bc9db0159226c97d4a15f04938.mp4' for writing
[hls @ 0x5562791c8980] Opening '/config/cache/transcodes/825ebd569bc9db0159226c97d4a15f04939.mp4' for writing
frame= 3133 fps=368 q=35.0 size=N/A time=00:02:03.79 bitrate=N/A speed=14.6x    
[hls @ 0x5562791c8980] Opening '/config/cache/transcodes/825ebd569bc9db0159226c97d4a15f04940.mp4' for writing
[hls @ 0x5562791c8980] Opening '/config/cache/transcodes/825ebd569bc9db0159226c97d4a15f04941.mp4' for writing
frame= 3301 fps=367 q=44.0 size=N/A time=00:02:10.79 bitrate=N/A speed=14.5x    
[hls @ 0x5562791c8980] Opening '/config/cache/transcodes/825ebd569bc9db0159226c97d4a15f04942.mp4' for writing
[hls @ 0x5562791c8980] Opening '/config/cache/transcodes/825ebd569bc9db0159226c97d4a15f04943.mp4' for writing
[hls @ 0x5562791c8980] Opening '/config/cache/transcodes/825ebd569bc9db0159226c97d4a15f04944.mp4' for writing
frame= 3487 fps=367 q=35.0 size=N/A time=00:02:18.54 bitrate=N/A speed=14.6x    
[hls @ 0x5562791c8980] Opening '/config/cache/transcodes/825ebd569bc9db0159226c97d4a15f04945.mp4' for writing
[hls @ 0x5562791c8980] Opening '/config/cache/transcodes/825ebd569bc9db0159226c97d4a15f04946.mp4' for writing
[hls @ 0x5562791c8980] Opening '/config/cache/transcodes/825ebd569bc9db0159226c97d4a15f04947.mp4' for writing
frame= 3707 fps=370 q=29.0 size=N/A time=00:02:27.70 bitrate=N/A speed=14.8x    
[hls @ 0x5562791c8980] Opening '/config/cache/transcodes/825ebd569bc9db0159226c97d4a15f04948.mp4' for writing
[hls @ 0x5562791c8980] Opening '/config/cache/transcodes/825ebd569bc9db0159226c97d4a15f04949.mp4' for writing
[hls @ 0x5562791c8980] Opening '/config/cache/transcodes/825ebd569bc9db0159226c97d4a15f04950.mp4' for writing
frame= 3919 fps=373 q=28.0 size=N/A time=00:02:36.54 bitrate=N/A speed=14.9x    
[hls @ 0x5562791c8980] Opening '/config/cache/transcodes/825ebd569bc9db0159226c97d4a15f04951.mp4' for writing
[hls @ 0x5562791c8980] Opening '/config/cache/transcodes/825ebd569bc9db0159226c97d4a15f04952.mp4' for writing
[hls @ 0x5562791c8980] Opening '/config/cache/transcodes/825ebd569bc9db0159226c97d4a15f04953.mp4' for writing


[q] command received. Exiting.

[hls @ 0x5562791c8980] Opening '/config/cache/transcodes/825ebd569bc9db0159226c97d4a15f04954.mp4' for writing
[hls @ 0x5562791c8980] Opening '/config/cache/transcodes/825ebd569bc9db0159226c97d4a15f04955.mp4' for writing
[out#0/hls @ 0x5562791c8800] video:6234KiB audio:2730KiB subtitle:0KiB other streams:0KiB global headers:0KiB muxing overhead: unknown
frame= 4192 fps=378 q=-1.0 Lsize=N/A time=00:02:47.80 bitrate=N/A dup=2 drop=0 speed=15.1x    
[libx264 @ 0x55627914c1c0] frame I:59    Avg QP:32.02  size: 11596
[libx264 @ 0x55627914c1c0] frame P:1298  Avg QP:34.62  size:  3006
[libx264 @ 0x55627914c1c0] frame B:2835  Avg QP:38.56  size:   634
[libx264 @ 0x55627914c1c0] consecutive B-frames:  7.0%  6.1%  6.9% 80.0%
[libx264 @ 0x55627914c1c0] mb I  I16..4: 23.8% 65.6% 10.6%
[libx264 @ 0x55627914c1c0] mb P  I16..4: 12.5% 18.3%  0.5%  P16..4: 15.1%  3.8%  1.0%  0.0%  0.0%    skip:48.7%
[libx264 @ 0x55627914c1c0] mb B  I16..4:  2.0%  2.0%  0.0%  B16..8:  7.6%  1.4%  0.1%  direct: 1.7%  skip:85.1%  L0:44.4% L1:50.4% BI: 5.2%
[libx264 @ 0x55627914c1c0] 8x8 transform intra:57.5% inter:42.3%
[libx264 @ 0x55627914c1c0] coded y,uvDC,uvAC intra: 21.1% 41.2% 11.0% inter: 1.5% 4.6% 0.1%
[libx264 @ 0x55627914c1c0] i16 v,h,dc,p: 35% 33% 16% 16%
[libx264 @ 0x55627914c1c0] i8 v,h,dc,ddl,ddr,vr,hd,vl,hu: 14% 19% 24% 10%  6%  6%  8%  5%  9%
[libx264 @ 0x55627914c1c0] i4 v,h,dc,ddl,ddr,vr,hd,vl,hu: 21% 24% 14%  8%  7%  7%  7%  5%  7%
[libx264 @ 0x55627914c1c0] i8c dc,h,v,p: 56% 22% 16%  6%
[libx264 @ 0x55627914c1c0] Weighted P-Frames: Y:8.4% UV:6.6%
[libx264 @ 0x55627914c1c0] kb/s:292.32